<svg width="164" height="51" viewBox="0 0 164 51" fill="none" xmlns="http://www.w3.org/2000/svg">
<path d="M10.5455 29.8182V50H0.863636V15.0909H10.0909V21.25H10.5C11.2727 19.2197 12.5682 17.6136 14.3864 16.4318C16.2045 15.2348 18.4091 14.6364 21 14.6364C23.4242 14.6364 25.5379 15.1667 27.3409 16.2273C29.1439 17.2879 30.5455 18.803 31.5455 20.7727C32.5455 22.7273 33.0455 25.0606 33.0455 27.7727V50H23.3636V29.5C23.3788 27.3636 22.8333 25.697 21.7273 24.5C20.6212 23.2879 19.0985 22.6818 17.1591 22.6818C15.8561 22.6818 14.7045 22.9621 13.7045 23.5227C12.7197 24.0833 11.947 24.9015 11.3864 25.9773C10.8409 27.0379 10.5606 28.3182 10.5455 29.8182ZM56.4489 50.6818C52.9186 50.6818 49.8655 49.9318 47.2898 48.4318C44.7292 46.9167 42.7519 44.8106 41.358 42.1136C39.964 39.4015 39.267 36.2576 39.267 32.6818C39.267 29.0758 39.964 25.9242 41.358 23.2273C42.7519 20.5152 44.7292 18.4091 47.2898 16.9091C49.8655 15.3939 52.9186 14.6364 56.4489 14.6364C59.9792 14.6364 63.0246 15.3939 65.5852 16.9091C68.161 18.4091 70.1458 20.5152 71.5398 23.2273C72.9337 25.9242 73.6307 29.0758 73.6307 32.6818C73.6307 36.2576 72.9337 39.4015 71.5398 42.1136C70.1458 44.8106 68.161 46.9167 65.5852 48.4318C63.0246 49.9318 59.9792 50.6818 56.4489 50.6818ZM56.4943 43.1818C58.1004 43.1818 59.4413 42.7273 60.517 41.8182C61.5928 40.8939 62.4034 39.6364 62.9489 38.0455C63.5095 36.4545 63.7898 34.6439 63.7898 32.6136C63.7898 30.5833 63.5095 28.7727 62.9489 27.1818C62.4034 25.5909 61.5928 24.3333 60.517 23.4091C59.4413 22.4848 58.1004 22.0227 56.4943 22.0227C54.8731 22.0227 53.5095 22.4848 52.4034 23.4091C51.3125 24.3333 50.4867 25.5909 49.9261 27.1818C49.3807 28.7727 49.108 30.5833 49.108 32.6136C49.108 34.6439 49.3807 36.4545 49.9261 38.0455C50.4867 39.6364 51.3125 40.8939 52.4034 41.8182C53.5095 42.7273 54.8731 43.1818 56.4943 43.1818ZM111.347 15.0909L99.142 50H88.233L76.0284 15.0909H86.2557L93.5057 40.0682H93.8693L101.097 15.0909H111.347ZM116.301 50V15.0909H125.983V50H116.301ZM121.165 10.5909C119.725 10.5909 118.491 10.1136 117.46 9.15909C116.445 8.18939 115.938 7.0303 115.938 5.68182C115.938 4.34848 116.445 3.20454 117.46 2.25C118.491 1.2803 119.725 0.795452 121.165 0.795452C122.604 0.795452 123.831 1.2803 124.847 2.25C125.877 3.20454 126.392 4.34848 126.392 5.68182C126.392 7.0303 125.877 8.18939 124.847 9.15909C123.831 10.1136 122.604 10.5909 121.165 10.5909ZM143.693 50.6591C141.466 50.6591 139.481 50.2727 137.739 49.5C135.996 48.7121 134.617 47.553 133.602 46.0227C132.602 44.4773 132.102 42.553 132.102 40.25C132.102 38.3106 132.458 36.6818 133.17 35.3636C133.883 34.0455 134.852 32.9848 136.08 32.1818C137.307 31.3788 138.701 30.7727 140.261 30.3636C141.837 29.9545 143.489 29.6667 145.216 29.5C147.246 29.2879 148.883 29.0909 150.125 28.9091C151.367 28.7121 152.269 28.4242 152.83 28.0455C153.39 27.6667 153.67 27.1061 153.67 26.3636V26.2273C153.67 24.7879 153.216 23.6742 152.307 22.8864C151.413 22.0985 150.14 21.7045 148.489 21.7045C146.746 21.7045 145.36 22.0909 144.33 22.8636C143.299 23.6212 142.617 24.5758 142.284 25.7273L133.33 25C133.784 22.8788 134.678 21.0455 136.011 19.5C137.345 17.9394 139.064 16.7424 141.17 15.9091C143.292 15.0606 145.746 14.6364 148.534 14.6364C150.473 14.6364 152.33 14.8636 154.102 15.3182C155.89 15.7727 157.473 16.4773 158.852 17.4318C160.246 18.3864 161.345 19.6136 162.148 21.1136C162.951 22.5985 163.352 24.3788 163.352 26.4545V50H154.17V45.1591H153.898C153.337 46.25 152.587 47.2121 151.648 48.0455C150.708 48.8636 149.58 49.5076 148.261 49.9773C146.943 50.4318 145.42 50.6591 143.693 50.6591ZM146.466 43.9773C147.89 43.9773 149.148 43.697 150.239 43.1364C151.33 42.5606 152.186 41.7879 152.807 40.8182C153.428 39.8485 153.739 38.75 153.739 37.5227V33.8182C153.436 34.0152 153.019 34.197 152.489 34.3636C151.973 34.5152 151.39 34.6591 150.739 34.7955C150.087 34.9167 149.436 35.0303 148.784 35.1364C148.133 35.2273 147.542 35.3106 147.011 35.3864C145.875 35.553 144.883 35.8182 144.034 36.1818C143.186 36.5455 142.527 37.0379 142.057 37.6591C141.587 38.2652 141.352 39.0227 141.352 39.9318C141.352 41.25 141.83 42.2576 142.784 42.9545C143.754 43.6364 144.981 43.9773 146.466 43.9773Z" fill="black"/>
</svg>
